<mxfile host="app.diagrams.net" modified="2022-06-18T07:47:38.305Z" agent="5.0 (Windows NT 10.0; Win64; x64) AppleWebKit/537.36 (KHTML, like Gecko) Chrome/99.0.4844.84 Safari/537.36" etag="BG6WabRA1aAgj4R3tkNg" version="20.0.1" type="github">
  <diagram id="i4Vngot3rHrF0eFNXG4s" name="第 1 页">
    <mxGraphModel dx="1038" dy="547" grid="1" gridSize="10" guides="1" tooltips="1" connect="1" arrows="1" fold="1" page="1" pageScale="1" pageWidth="827" pageHeight="1169" math="0" shadow="0">
      <root>
        <mxCell id="0" />
        <mxCell id="1" parent="0" />
        <mxCell id="zauTzaDkUk1ICzrEz5W0-3" value="" style="edgeStyle=orthogonalEdgeStyle;rounded=0;orthogonalLoop=1;jettySize=auto;html=1;" edge="1" parent="1" source="zauTzaDkUk1ICzrEz5W0-1" target="zauTzaDkUk1ICzrEz5W0-2">
          <mxGeometry relative="1" as="geometry" />
        </mxCell>
        <mxCell id="zauTzaDkUk1ICzrEz5W0-1" value="接口,API" style="rounded=0;whiteSpace=wrap;html=1;" vertex="1" parent="1">
          <mxGeometry x="140" y="110" width="120" height="60" as="geometry" />
        </mxCell>
        <mxCell id="zauTzaDkUk1ICzrEz5W0-5" value="" style="edgeStyle=orthogonalEdgeStyle;rounded=0;orthogonalLoop=1;jettySize=auto;html=1;" edge="1" parent="1" source="zauTzaDkUk1ICzrEz5W0-2" target="zauTzaDkUk1ICzrEz5W0-4">
          <mxGeometry relative="1" as="geometry" />
        </mxCell>
        <mxCell id="zauTzaDkUk1ICzrEz5W0-2" value="sql会话，门面模式" style="rounded=0;whiteSpace=wrap;html=1;" vertex="1" parent="1">
          <mxGeometry x="340" y="110" width="120" height="60" as="geometry" />
        </mxCell>
        <mxCell id="zauTzaDkUk1ICzrEz5W0-7" value="" style="edgeStyle=orthogonalEdgeStyle;rounded=0;orthogonalLoop=1;jettySize=auto;html=1;" edge="1" parent="1" source="zauTzaDkUk1ICzrEz5W0-4" target="zauTzaDkUk1ICzrEz5W0-6">
          <mxGeometry relative="1" as="geometry" />
        </mxCell>
        <mxCell id="zauTzaDkUk1ICzrEz5W0-4" value="执行器" style="rounded=0;whiteSpace=wrap;html=1;" vertex="1" parent="1">
          <mxGeometry x="540" y="110" width="120" height="60" as="geometry" />
        </mxCell>
        <mxCell id="zauTzaDkUk1ICzrEz5W0-6" value="JDBC连接器" style="rounded=0;whiteSpace=wrap;html=1;" vertex="1" parent="1">
          <mxGeometry x="740" y="110" width="120" height="60" as="geometry" />
        </mxCell>
      </root>
    </mxGraphModel>
  </diagram>
</mxfile>
